<svg xmlns="http://www.w3.org/2000/svg" xmlns:xlink="http://www.w3.org/1999/xlink" version="1.1" x="0px" y="0px" viewBox="0 0 100 125" enable-background="new 0 0 100 100" xml:space="preserve"><g><path d="M60.445,31.406c0-2.354-1.914-4.266-4.27-4.266c-2.354,0-4.26,1.912-4.26,4.266c0,2.358,1.906,4.27,4.26,4.27   C58.531,35.676,60.445,33.764,60.445,31.406L60.445,31.406z"/></g><g><path d="M54.971,64.068l-6.565,6.378l4.202,4.319l7.307-7.107c1.793-1.742,2.232-4.455,1.085-6.674l-2.97-5.73   c-0.764-1.477-2.578-2.054-4.055-1.286c-1.48,0.764-2.059,2.577-1.291,4.054l2.484,4.806   C55.383,63.241,55.304,63.742,54.971,64.068z"/></g><path d="M36.563,38.671c-2.143,1.603-5.189,1.168-6.796-0.979c-1.607-2.143-1.173-5.185,0.97-6.792  c2.148-1.607,5.193-1.172,6.796,0.975l5.505,3.35c0.751,0.459,1.604,0.734,2.481,0.811l25.97,2.164l3,0.245l-0.249,3.004  c-0.144,1.654-1.595,2.89-3.249,2.747l-13.571-1.127c-0.442-0.038-0.86,0.207-1.046,0.607l-4.966,10.813  c-0.299,0.649-0.721,1.235-1.24,1.729L32.294,73.311l-4.16-4.349L45.183,52.66c0.514-0.498,0.932-1.084,1.231-1.733l3.257-7.092  c0.245-0.527,0.017-1.148-0.511-1.393c-0.114-0.051-0.232-0.084-0.354-0.093l-5.206-0.435c-0.878-0.072-1.727-0.351-2.481-0.81  l-4.32-2.628C36.724,38.544,36.644,38.608,36.563,38.671z M37.002,34.786c0-1.852-1.498-3.354-3.35-3.354  c-1.852,0-3.354,1.502-3.354,3.354c0,1.847,1.502,3.354,3.354,3.354C35.504,38.14,37.002,36.633,37.002,34.786L37.002,34.786z"/><path d="M88.323,50.032c0,21.06-17.068,38.133-38.129,38.133c-21.06,0-38.133-17.073-38.133-38.133s17.073-38.133,38.133-38.133  C71.255,11.899,88.323,28.972,88.323,50.032L88.323,50.032z M92.889,50.032c0-23.583-19.115-42.698-42.694-42.698  C26.616,7.334,7.5,26.449,7.5,50.032c0,23.574,19.116,42.689,42.694,42.689C73.773,92.721,92.889,73.605,92.889,50.032  L92.889,50.032z"/>
</svg>
